<svg width="18" height="22" viewBox="0 0 18 22" fill="none" xmlns="http://www.w3.org/2000/svg">
<path d="M17.62 7.45C16.57 2.83 12.54 0.75 8.99997 0.75C8.99997 0.75 8.99997 0.75 8.98997 0.75C5.45997 0.75 1.41997 2.82 0.369973 7.44C-0.800027 12.6 2.35997 16.97 5.21997 19.72C6.27997 20.74 7.63997 21.25 8.99997 21.25C10.36 21.25 11.72 20.74 12.77 19.72C15.63 16.97 18.79 12.61 17.62 7.45ZM8.99997 12.46C7.25997 12.46 5.84997 11.05 5.84997 9.31C5.84997 7.57 7.25997 6.16 8.99997 6.16C10.74 6.16 12.15 7.57 12.15 9.31C12.15 11.05 10.74 12.46 8.99997 12.46Z" fill="#B3B4BA"/>
</svg>
